<?xml version="1.0" encoding="UTF-8"?>
<svg width="32px" height="32px" viewBox="0 0 32 32" version="1.1" xmlns="http://www.w3.org/2000/svg" xmlns:xlink="http://www.w3.org/1999/xlink">
    <!-- Generator: Sketch 41.2 (35397) - http://www.bohemiancoding.com/sketch -->
    <title>twitter</title>
    <desc>Created with Sketch.</desc>
    <defs></defs>
    <g id="Page-1" stroke="none" stroke-width="1" fill="none" fill-rule="evenodd" fill-opacity="0.8">
        <g id="twitter" fill="#66757F">
            <path d="M16,32 C24.836556,32 32,24.836556 32,16 C32,7.163444 24.836556,0 16,0 C7.163444,0 0,7.163444 0,16 C0,24.836556 7.163444,32 16,32 Z M24.4083464,9.89863979 C25.3406702,9.32659212 26.0560542,8.41952571 26.3930855,7.33899113 C25.5201622,7.86866496 24.5555557,8.25400275 23.5250927,8.46057542 C22.7038212,7.56145421 21.5300227,7 20.230968,7 C17.7400364,7 15.7191407,9.07234867 15.7191407,11.6280245 C15.7191407,11.9908512 15.7578799,12.3430841 15.8353584,12.6820752 C12.0841109,12.4887442 8.75899517,10.648128 6.53149012,7.84482979 C6.14280696,8.53075725 5.92070183,9.32659212 5.92070183,10.1740702 C5.92070183,11.7789816 6.71743871,13.1958591 7.92868446,14.0261226 C7.19005692,14.0036115 6.49275088,13.793066 5.88325417,13.448778 L5.88325417,13.5057181 C5.88325417,15.7488867 7.43927933,17.6199592 9.50537083,18.043698 C9.12701758,18.1522812 8.72800358,18.2065727 8.31607696,18.2065727 C8.02553258,18.2065727 7.74144521,18.1787651 7.46639663,18.1244733 C8.04102838,19.9624413 9.70681475,21.3011917 11.6825147,21.3369449 C10.138111,22.5790296 8.19081996,23.3192489 6.07694996,23.3192489 C5.71280138,23.3192489 5.35252663,23.298062 5,23.2556882 C6.99765225,24.5666306 9.37107458,25.3333333 11.9188235,25.3333333 C20.2219288,25.3333333 24.7608735,18.2820515 24.7608735,12.1656435 C24.7608735,11.9643674 24.7569996,11.7630912 24.7492515,11.5657879 C25.6312145,10.9129649 26.3969594,10.0985914 27,9.17033804 C26.1916416,9.53846175 25.3213005,9.78740825 24.4083464,9.89863979 Z" id="Combined-Shape"></path>
        </g>
    </g>
</svg>